<?xml version="1.0" encoding="UTF-8"?>
<svg xmlns="http://www.w3.org/2000/svg" xmlns:xlink="http://www.w3.org/1999/xlink" width="128px" height="128px" viewBox="0 0 128 128" version="1.1">
<g id="surface1">
<path style=" stroke:none;fill-rule:nonzero;fill:rgb(0%,0%,0%);fill-opacity:1;" d="M 128 20 L 128 32 C 128 43.050781 99.34375 52 64 52 C 28.65625 52 0 43.050781 0 32 L 0 20 C 0 8.949219 28.65625 0 64 0 C 99.34375 0 128 8.949219 128 20 Z M 112.34375 53.675781 C 118.285156 51.824219 123.742188 49.449219 128 46.523438 L 128 72 C 128 83.050781 99.34375 92 64 92 C 28.65625 92 0 83.050781 0 72 L 0 46.523438 C 4.257812 49.476562 9.714844 51.824219 15.65625 53.675781 C 28.484375 57.675781 45.570312 60 64 60 C 82.429688 60 99.515625 57.675781 112.34375 53.675781 Z M 0 86.523438 C 4.257812 89.476562 9.714844 91.824219 15.65625 93.675781 C 28.484375 97.675781 45.570312 100 64 100 C 82.429688 100 99.515625 97.675781 112.34375 93.675781 C 118.285156 91.824219 123.742188 89.449219 128 86.523438 L 128 108 C 128 119.050781 99.34375 128 64 128 C 28.65625 128 0 119.050781 0 108 Z M 0 86.523438 "/>
</g>
</svg>
